<svg xmlns="http://www.w3.org/2000/svg" viewBox="0 0 250 250"><g transform="matrix(1.25,0,0,1.25,0,0)"><defs></defs><path d="M103.194 47.026a2.84 2.84 0 0 1 2.023.443 2.926 2.926 0 0 1 .822 2.024 13.746 13.746 0 0 1-2.087 7.082c-1.77 3.225-4.173 6.387-7.588 7.779a2.315 2.315 0 0 1-1.581.189 2.188 2.188 0 0 1-1.2-1.644c-.885-3.668 1.328-7.589 2.846-10.814a8.531 8.531 0 0 1 6.765-5.059z" fill="#f7846c"></path><path d="M104.269 49.429a40.642 40.642 0 0 0-4.87 6.134c1.012-.379 1.961-.758 2.972-1.138A15.566 15.566 0 0 1 95.1 62.33c.19-.063.822-3.731 1.012-4.237a16.573 16.573 0 0 1 1.328-2.846 27.552 27.552 0 0 1 6.829-5.818z" fill="#dd4040"></path><path d="M59.622 17.115c6.767.379 12.332 5.185 18.4 8.094a55.546 55.546 0 0 0 8.916 3.225A53.512 53.512 0 0 0 99.462 30.9a22.53 22.53 0 0 0 12.332-2.719c2.087-1.265 4.047-3.225 4.427-5.628.379-2.782-1.518-5.565-4.111-6.766a11.347 11.347 0 0 0-8.284-.064 20.827 20.827 0 0 0 4.363-5.312 5.547 5.547 0 0 0 .886-2.4c.126-1.9-1.328-3.541-2.973-4.553C101.613.609 95.921.989 90.736 1.811c-5.186.889-10.561 2.15-15.683 1.012C71.827 2.064 68.792.356 65.44.04a11.54 11.54 0 0 0-8.284 2.593 11.473 11.473 0 0 0-4.047 7.715 15.446 15.446 0 0 0-11.889 9.043 24.4 24.4 0 0 0-1.391 6.009 72.68 72.68 0 0 0 0 10.5c.379 8.095.759 16.253 2.909 24.031.569 2.023 1.328 4.174 3.225 5.122 1.9 1.012 4.363.253 5.944-1.265a13.3 13.3 0 0 0 2.973-5.691c3.478-11.826 2.086-24.537 3.478-36.805a10 10 0 0 1 1.264-4.177z"></path><path d="M69.93 78.139c-.253 5.249-1.2 13.091 4.806 17.644-9.991 19.6-27.192 13.28-27.192-1.96 5.5-2.72 6.324-17.707 5.881-22.829 5.628 5.185 10.181 8.979 16.505 7.145z" fill="#f7846c"></path><path d="M53.488 75.863c2.277 3.857 4.68 7.905 8.664 10.118a7.275 7.275 0 0 0 6.261.506 12.986 12.986 0 0 0 1.328-.632 51.218 51.218 0 0 1 .126-7.716c-6.324 1.834-10.877-1.9-16.442-7.082a37.829 37.829 0 0 1 .063 4.806z"></path><path d="M72.523 90.408c2.909 2.656 7.525 1.77 11.13.316 8.79-3.605 16.758-9.865 26.181-11a89.456 89.456 0 0 0 9.991 30.544c-3.225 5.629-8.79 9.423-11.509 15.3-1.834 3.858-2.024 8.284-2.024 12.585.063 18.465 2.783 36.425 4.364 55.27-11.446-3.036-26.181-1.961-37.88.189s-23.208 5.249-35.034 6.2c-4.363.316-8.853.379-13.09-.949.822-10.877 1.011-25.864-.443-36.615-6.7 1.581-9.233 1.139-16.126 1.265.316-2.719 1.771-10.434 1.961-12.711.442-4.679.822-9.3 1.517-13.912.7-4.553 1.9-8.98 2.909-13.47.822-3.794 1.834-7.652 3.921-10.94a31.3 31.3 0 0 1 5.249-5.945c4.679-4.11 10.244-7.082 15.746-9.991 3.162-1.708 6.324-3.352 9.423-5.059 2.276 3.1 4.49 6.576 7.778 8.537 3.288 1.9 7.652 2.466 10.94.506 3.605-2.152 4.553-5.947 4.996-10.12z" fill="#9778ff"></path><path d="M34.517 157.883a37.629 37.629 0 0 0 11.762-8.348 28.25 28.25 0 0 0 .633-4.553c.063-2.4-.317-4.932-2.467-6.324-3.162-2.086-7.4.7-10.055 2.467-3.035 2.023-5.691 4.679-8.916 6.387-5.249 2.782-11.383 3.921-15.557 8.41a7.913 7.913 0 0 0-.7.823c-.443 2.592-.886 5.248-1.076 6.64 5.565-.127 8.285.126 12.648-.57 4.558-1.644 9.301-2.845 13.728-4.932zM47.86 99.83c4.3 4.49 10.94 9.612 17.58 7.462 3.731-1.2 6.451-4.553 8.221-7.905a40.336 40.336 0 0 0 2.846-7.272 6.451 6.451 0 0 1-3.984-1.644c-.443 4.174-1.328 7.968-4.933 10.055-3.288 1.96-7.588 1.391-10.94-.506-3.288-1.9-5.5-5.439-7.778-8.537-1.834.948-3.668 1.96-5.5 2.909a52.508 52.508 0 0 0 4.488 5.438z" fill="#643cff"></path><path d="M100.221 31.406a101.652 101.652 0 0 1-1.138 23.588c-1.2 6.956-2.909 15.936-7.905 21.185a19.387 19.387 0 0 1-12.584 5.565 36.257 36.257 0 0 1-21.122-4.68C49.5 72.385 47.354 65.618 46.089 56.828A107.748 107.748 0 0 1 44.7 39.374c.127-7.968 1.455-18.592 6.893-24.852a26.442 26.442 0 0 1 20.047-8.98c9.549.126 17.706 5.122 23.335 12.4a24.743 24.743 0 0 1 5.248 13.469" fill="#f7846c"></path><path d="M95.415 17.684C89.787 10.411 81.629 5.163 72.08 5.036a28.5 28.5 0 0 0-20.8 9.423c-5.439 6.26-7.209 17.264-7.336 25.232-.063 3.984.949 7.651 1.392 11.635.379.19.758.443 1.138.633.316.126 1.075.569 1.454.316.317-.19.38-.949.38-1.2a12.31 12.31 0 0 0 .126-2.15 32.75 32.75 0 0 1 .316-4.3 60.58 60.58 0 0 1 5.05-17.519c2.973-6.26 8.221-10.244 14.988-6.7 6.134 3.225 11.256 8.853 16.568 13.28 4.617 3.857 10.371 3.794 9.36.063a46.241 46.241 0 0 1-1.645-6.956 18.152 18.152 0 0 0 9.233 3.352c4.364.126 10.055-1.645 12.521-5.5a5.241 5.241 0 0 0 .253-5.5"></path><path d="M43.117 41.525c-1.644-1.076-3.731-1.9-5.438-1.012a4.238 4.238 0 0 0-1.771 2.023c-1.2 2.593-.7 5.692.443 8.348a20.722 20.722 0 0 0 10.308 10.687c1.2.569 2.656.949 3.731.253a3.2 3.2 0 0 0 1.2-1.9 11.352 11.352 0 0 0-.316-6.64c-1.58-4.993-3.667-8.851-8.157-11.759z" fill="#f7846c"></path><path d="M48.24 57.4c-.7-8.157-4.68-11-8.538-13.975 2.214 2.972 4.3 5.754 5.439 9.3-1.138-.569-3.478-1.328-4.869-.949 3.035 1.581 3.92 2.466 7.968 5.628M80.3 40.7a23.793 23.793 0 0 0 1.392 9.17c.948 2.34 2.908 4.553 5.564 4.806A23.529 23.529 0 0 1 78.72 57.9c-1.454-5.246-.379-12.139 1.58-17.2z" fill="#dd4040"></path><path d="M82.831 46.014c2.15-2.466 6.007-5.565 9.233-5.185s6.2 2.15 7.335 7.019c0 0-2.4 1.834-7.905 1.392a16.411 16.411 0 0 1-8.663-3.226zM58.041 43.8c2.151-2.466 6.008-5.565 9.233-5.185s6.2 2.15 7.336 7.019c0 0-2.4 1.834-7.905 1.391a16.743 16.743 0 0 1-8.664-3.225z" fill="#ffffff"></path><path d="M95.226 48.165a13.847 13.847 0 0 1 1.391-5.5 8.316 8.316 0 0 0-4.553-1.9c-3.226-.38-7.083 2.782-9.233 5.185a15.821 15.821 0 0 0 8.663 3.225 17.062 17.062 0 0 0 3.668-.063 4.725 4.725 0 0 0 .064-.947zm-23.778-8.032a8.154 8.154 0 0 0-4.111-1.517c-3.225-.38-7.082 2.782-9.232 5.185a15.821 15.821 0 0 0 8.663 3.225 17.842 17.842 0 0 0 3.731-.063 14.517 14.517 0 0 1 .949-6.83z"></path><path d="M63.417 61.634c0 4.933 7.146 9.233 17.011 6.451" stroke="#000000" stroke-linejoin="round" stroke-width="2.523px" fill="none"></path><path d="M77.961 29.572c-.442 2.34-.632 4.048-2.656 4.617-2.972.822-8.22-1.391-11.256-1.771-2.849-.318-5.691.882-8.349 2.087 1.644-2.15 2.782-5 5.438-5.628a10.845 10.845 0 0 1 2.846-.253c4.239 0 9.804.632 13.977.948zm23.146 8.411a5.417 5.417 0 0 0-1.392-1.771c-1.138-.948-2.782-.948-4.173-.948-1.708 0-3.415 0-5.123.063a2.793 2.793 0 0 1-2.339-.759 4.793 4.793 0 0 1-.38-1.012c-.19-.948-.379-1.833-.569-2.782a49.685 49.685 0 0 1 10.624.506 3.178 3.178 0 0 1 1.834.759 3.833 3.833 0 0 1 1.012 1.77 10.025 10.025 0 0 1 .379 2.4 7.466 7.466 0 0 1 .127 1.774z"></path><path d="M130.449 78.645c-1.834-1.011-3.162-2.845-4.553-4.426-1.644-1.834-3.288-4.553-3.288-7.083 0-.885.506-1.518 1.391-1.138 1.834.822 5.375 4.173 7.336 4.363 1.9.19 2.972-2.846 3.541-4.679a24.966 24.966 0 0 1 1.581-4.3 3.184 3.184 0 0 1 2.782-.759c1.075.57 1.9 2.024 3.289 1.139 2.213-1.328 4.237 2.4 7.146 1.391.885-.316.506 1.265 1.328 1.707s1.517-1.264 1.77-.316c.316 1.391 1.9 1.834 3.1 1.9.506 0-.063 2.72.063 3.226a11.925 11.925 0 0 1-1.9 9.106 12.162 12.162 0 0 1-7.905 4.932 15.924 15.924 0 0 1-8.221-1.138 41.916 41.916 0 0 1-7.462-3.921" fill="#dd4040"></path><path d="M173.767 145.8c8.411-20.173 13.66-40.915 18.15-62.353-25.991-7.9-57.926-15.619-84.866-19.54A231.394 231.394 0 0 1 83.59 123.8c6.071-.253 11.636 1.645 17.453 3.479 22.007 6.889 49.895 14.858 72.724 18.521z" fill="#14d29b"></path><path d="M172.313 142.9c8.284-19.92 13.533-40.346 17.96-61.4-25.359-7.652-56.472-15.114-82.716-18.908a233.712 233.712 0 0 1-23.145 59.064c5.944-.253 11.319 1.581 17.011 3.352 21.501 6.631 48.63 14.346 70.89 17.892z" fill="#fdb849"></path><path d="M170.985 139.923a324.377 324.377 0 0 0 17.96-59.507 635.663 635.663 0 0 0-83.285-19.161 215.4 215.4 0 0 1-22.323 56.977c5.881-.189 11.319 1.645 16.948 3.415 21.437 6.767 48.503 14.545 70.7 18.276z" fill="#ffd340"></path><path d="M144.425 78.456c-.063.379-.19.822-.633.885-2.908.316-4.047-15.367-1.707-17.264 2.087-1.644 3.794.949 3.921 3.1.379 4.489-.822 9.105-1.581 13.279z" fill="#f7846c"></path><path d="M146.385 78.645c-.189.317-.506.7-.948.633-3.162-.443 1.138-14.924 4.3-16.063 2.782-1.012 3.668 1.771 3.035 3.8-1.328 4.105-4.172 8.026-6.387 11.63zm5.249-1.264c-.19.189-.379.442-.7.316-1.9-.759 2.783-10.877 4.87-11.257 1.834-.316 2.023 1.834 1.391 3.226-1.387 2.908-3.664 5.375-5.561 7.715z" fill="#f7846c"></path><path d="M141.516 102.992c.379.127.7.19 1.075.316 1.265-3.921 2.34-7.715 3.352-11.319-3.415-.949-6.83-1.834-10.182-2.72-1.2 3.668-2.466 7.273-3.857 10.814 3.225.949 6.45 1.897 9.612 2.909zm-10.434-3.162c1.391-3.541 2.656-7.146 3.857-10.814-3.731-.948-7.4-1.833-11-2.592a496.563 496.563 0 0 1-3.731 10.371c3.538 1.012 7.206 2.023 10.874 3.035zM123.05 86.3c-3.478-.695-6.893-1.328-10.181-1.771a230.4 230.4 0 0 1-3.794 9.929c3.351.569 6.766 1.328 10.244 2.15 1.328-3.355 2.53-6.833 3.731-10.308zm-3.162 11.38c-1.264 3.288-2.529 6.577-3.92 9.865 3.478 1.012 6.956 2.087 10.434 3.162 1.581-3.288 3.035-6.7 4.363-10.118-3.665-1.012-7.335-2.024-10.877-2.909zm34.402 9.106a344.36 344.36 0 0 0 3.605-11.446c-1.265-.379-2.53-.7-3.8-1.075-2.466-.7-4.869-1.391-7.335-2.023-1.012 3.6-2.087 7.4-3.352 11.319 3.61 1.075 7.277 2.15 10.882 3.225zM108.758 95.34c-1.328 3.162-2.782 6.261-4.3 9.3 3.478.759 7.083 1.644 10.688 2.656 1.391-3.225 2.656-6.513 3.92-9.8-3.541-.891-7.019-1.587-10.308-2.156zm46.354 11.636c3.858 1.075 7.652 2.087 11.32 2.909 1.328-3.731 2.656-7.462 3.857-11.256-3.668-.949-7.588-2.024-11.572-3.1a171.843 171.843 0 0 1-3.605 11.447zM151 118.359c3.794 1.012 7.525 1.9 11.193 2.593 1.391-3.352 2.656-6.767 3.921-10.182-3.668-.822-7.463-1.834-11.32-2.909A171.64 171.64 0 0 1 151 118.359zm-9.737-14.545c-3.225-.948-6.45-1.96-9.676-2.909a157.112 157.112 0 0 1-4.363 10.118c1.455.443 2.909.949 4.363 1.392 2.34.758 4.68 1.517 7.083 2.276a264.411 264.411 0 0 0 3.731-10.561c-.442-.13-.759-.189-1.138-.316zm1.897.569c-1.138 3.478-2.34 7.02-3.731 10.561 3.6 1.138 7.146 2.213 10.751 3.162 1.328-3.478 2.656-7.019 3.857-10.561a706.99 706.99 0 0 1-10.877-3.162z" fill="none"></path><path d="m181.862 101.348.19-.822c-3.289-.633-6.83-1.455-10.561-2.4a256.416 256.416 0 0 0 3.541-11.889l-.822-.253c-1.138 3.984-2.277 7.968-3.541 11.889-3.731-.949-7.589-2.024-11.573-3.1a253.749 253.749 0 0 0 3.162-11.889l-.822-.189c-.949 3.984-2.024 7.9-3.162 11.825-1.265-.379-2.529-.7-3.794-1.075-2.467-.7-4.933-1.391-7.336-2.024 1.138-4.236 2.087-8.157 2.909-11.572l-.822-.19c-.822 3.415-1.771 7.336-2.909 11.51-3.415-.949-6.766-1.834-10.118-2.72q1.707-5.311 3.035-10.624l-.822-.189c-.885 3.6-1.96 7.145-3.035 10.624-3.731-.949-7.4-1.834-10.94-2.593 1.328-3.858 2.656-7.715 3.92-11.51l-.822-.253c-1.265 3.858-2.593 7.716-3.921 11.636-3.478-.695-6.892-1.328-10.181-1.77 1.265-3.731 2.466-7.462 3.478-11.257l-.822-.253c-1.012 3.858-2.213 7.652-3.541 11.383a83.063 83.063 0 0 0-8.537-.7v.885c2.592.063 5.375.316 8.221.632-1.2 3.352-2.467 6.64-3.8 9.929a80.1 80.1 0 0 0-8.221-.949l-.063.885a74.856 74.856 0 0 1 7.968.886c-1.328 3.162-2.782 6.26-4.3 9.3-2.593-.506-5.186-.949-7.715-1.265l-.127.885c2.4.253 4.87.7 7.4 1.2q-2.466 4.932-5.312 9.675l.759.443c1.9-3.288 3.731-6.577 5.439-9.928 3.478.758 7.082 1.644 10.687 2.656-1.391 3.288-2.909 6.513-4.49 9.675l.759.379c1.581-3.225 3.1-6.513 4.553-9.8 3.478 1.011 6.956 2.086 10.434 3.161a153.049 153.049 0 0 1-4.932 9.613l.759.442c1.77-3.225 3.414-6.45 5-9.8 1.518.506 2.973.949 4.427 1.455l7.019 2.276c-1.2 3.1-2.529 6.2-3.92 9.3l.759.38c1.391-3.1 2.719-6.261 3.92-9.359 3.6 1.138 7.146 2.213 10.751 3.162-1.2 2.972-2.4 5.944-3.668 8.916l.822.316a381.706 381.706 0 0 0 3.731-9.043c3.794 1.012 7.525 1.9 11.193 2.593-1.391 3.415-2.845 6.767-4.3 10.118l.822.38a506.986 506.986 0 0 0 4.427-10.308 86.909 86.909 0 0 0 10.371 1.2l.063-.885a71.969 71.969 0 0 1-10.118-1.138 672.296 672.296 0 0 0 3.921-10.118 104.439 104.439 0 0 0 10.814 1.833l.063-.885a104.1 104.1 0 0 1-10.624-1.834c1.328-3.731 2.656-7.462 3.857-11.193 3.541.817 7.145 1.702 10.497 2.335zM154.1 94.265c1.265.38 2.53.7 3.8 1.075a344.36 344.36 0 0 1-3.605 11.446c-3.6-1.011-7.272-2.15-10.877-3.225 1.265-3.921 2.34-7.715 3.352-11.319 2.461.632 4.93 1.328 7.33 2.023zm-8.157-2.276c-1.012 3.6-2.087 7.4-3.352 11.319-.379-.126-.7-.189-1.075-.316-3.225-.949-6.387-1.96-9.612-2.909 1.391-3.541 2.719-7.146 3.857-10.814 3.352.886 6.767 1.771 10.182 2.72zm-11-2.909a218.538 218.538 0 0 1-3.857 10.813c-3.668-1.075-7.273-2.086-10.877-2.972 1.328-3.478 2.529-6.956 3.731-10.371 3.6.696 7.268 1.581 10.999 2.53zm-22.007-4.554c3.289.443 6.64 1.012 10.182 1.771-1.2 3.478-2.467 6.893-3.731 10.371-3.479-.885-6.957-1.581-10.245-2.15a276.477 276.477 0 0 0 3.79-9.992zm-8.537 20.11c1.518-3.035 2.972-6.2 4.3-9.3 3.352.569 6.767 1.328 10.308 2.15-1.265 3.289-2.529 6.577-3.921 9.8a185.747 185.747 0 0 0-10.686-2.65zm11.509 2.909c1.392-3.288 2.72-6.577 3.921-9.865 3.542.885 7.209 1.9 10.877 2.972a157.112 157.112 0 0 1-4.363 10.118c-3.419-1.138-6.96-2.213-10.443-3.225zm15.62 4.87c-1.454-.443-2.909-.949-4.363-1.392 1.581-3.351 3.035-6.7 4.363-10.118 3.225.949 6.451 1.9 9.676 2.909.379.127.7.19 1.075.316-1.139 3.478-2.34 7.02-3.731 10.561-2.281-.759-4.684-1.518-7.024-2.276zm7.905 2.529a264.411 264.411 0 0 0 3.731-10.561c3.6 1.075 7.272 2.214 10.877 3.225-1.2 3.542-2.466 7.02-3.857 10.561a405.072 405.072 0 0 1-10.755-3.225zm22.829 5.944c-3.668-.7-7.462-1.58-11.193-2.592 1.328-3.478 2.656-6.957 3.857-10.5 3.858 1.075 7.652 2.087 11.32 2.909-1.332 3.417-2.66 6.832-3.988 10.183zm4.174-11c-3.668-.822-7.462-1.834-11.32-2.909a345.103 345.103 0 0 0 3.605-11.446 411.84 411.84 0 0 0 11.572 3.1c-1.205 3.79-2.47 7.584-3.861 11.252z" fill="#ffffff"></path><path d="m123.43 75.104-2.909 2.087-.886-2.846-1.517.443 1.012 3.351-3.605 2.53.885 1.328 3.225-2.213.949 3.035 1.518-.443-1.075-3.604 3.351-2.34-.948-1.328zm11.952 4.363-2.782 1.392c-.316-1.139-.632-2.214-.948-3.352l-1.518.379a80.698 80.698 0 0 0 1.012 3.732l-3.731 1.9.7 1.391 3.542-1.771c.379 1.075.759 2.214 1.138 3.289l1.518-.57c-.443-1.138-.822-2.276-1.2-3.414l2.972-1.518zm12.837 2.214a160.99 160.99 0 0 0-4.553 2.213l-1.454-3.731-1.455.569 1.518 3.858c-1.075.569-2.15 1.075-3.162 1.707l.759 1.391a67.923 67.923 0 0 1 2.972-1.581l1.328 3.289 1.454-.569-1.391-3.478c1.518-.759 3.1-1.518 4.617-2.277zm11.636 2.213a144.122 144.122 0 0 0-5.439 2.593 338.155 338.155 0 0 0-1.707-4.49l-1.454.569c.569 1.518 1.2 3.1 1.77 4.68-.948.506-1.96 1.012-2.909 1.517l.759 1.392c.885-.506 1.771-.949 2.656-1.392.38 1.012.7 2.024 1.075 3.036l1.518-.506c-.38-1.075-.759-2.213-1.138-3.288a110.6 110.6 0 0 1 5.565-2.656zm12.395 5.122-.506-1.517c-1.518.506-3.036 1.075-4.553 1.581-.317-1.265-.633-2.53-1.075-3.8l-1.518.506a88.11 88.11 0 0 1 1.075 3.858c-1.328.506-2.719 1.012-4.047 1.518l.569 1.454c1.265-.506 2.529-.949 3.794-1.454.38 1.58.632 3.161.885 4.806l1.581-.253q-.38-2.562-.948-5.123c1.581-.501 3.162-1.07 4.743-1.576zm11.319 2.593-.822-1.391-3.415 2.087c-.442-1.328-.885-2.593-1.264-3.921l-1.518.506c.443 1.391.948 2.846 1.391 4.237L171.87 96.8l.822 1.391 5.755-3.478c.379 1.075.7 2.087 1.075 3.162l1.518-.506c-.38-1.138-.822-2.277-1.2-3.478zm-75-6.324a54.273 54.273 0 0 0-3.352 1.645 23.845 23.845 0 0 0-1.265-2.151l-1.391.823a34.27 34.27 0 0 1 1.2 2.086c-1.265.7-2.53 1.455-3.8 2.214l.886 1.328c1.2-.759 2.466-1.518 3.668-2.15.442.822.822 1.644 1.264 2.466l1.455-.7c-.38-.885-.822-1.707-1.265-2.529 1.075-.569 2.15-1.075 3.225-1.581zm12.521 1.834-3.984 2.15-1.391-3.288-1.455.632 1.455 3.415-4.3 2.277.759 1.391 4.111-2.213a13.006 13.006 0 0 0 1.454 2.782l1.261-.948a11.874 11.874 0 0 1-1.265-2.53l-.063-.126 4.111-2.214zm29.153 20.3a7.967 7.967 0 0 1-6.324-3.162 7.265 7.265 0 0 1-.759-7.4 8.512 8.512 0 0 1 7.209-4.49 7.882 7.882 0 0 1 7.4 4.047 6.873 6.873 0 0 1-.632 7.4 8.719 8.719 0 0 1-6.514 3.541.792.792 0 0 1-.38.064zm.189-13.407a6.805 6.805 0 0 0-5.881 3.542 5.74 5.74 0 0 0 .633 5.754 6.429 6.429 0 0 0 5.375 2.467 7.312 7.312 0 0 0 5.312-2.909 5.245 5.245 0 0 0 .569-5.692 6.634 6.634 0 0 0-6.008-3.162z"></path><path d="M112.11 68.085a4.211 4.211 0 0 1-3.984-3.858 6.435 6.435 0 0 1 2.213-5.186 6.064 6.064 0 0 1 4.364-1.9 4.037 4.037 0 0 1 3.921 3.036l-1.708.316a2.315 2.315 0 0 0-2.276-1.644 4.6 4.6 0 0 0-3.1 1.391 4.665 4.665 0 0 0-1.644 3.731 2.514 2.514 0 0 0 2.4 2.277l.19 1.707a.625.625 0 0 1-.376.13zm11.826 1.515a4.209 4.209 0 0 1-3.984-3.857 6.435 6.435 0 0 1 2.213-5.186 6.06 6.06 0 0 1 4.363-1.9 4.034 4.034 0 0 1 3.921 3.036l-1.707.316a2.317 2.317 0 0 0-2.277-1.645 4.6 4.6 0 0 0-3.1 1.392 4.668 4.668 0 0 0-1.645 3.731 2.514 2.514 0 0 0 2.4 2.276l.19 1.708a.626.626 0 0 1-.374.129zm11.13 2.342a4.209 4.209 0 0 1-3.984-3.857 6.435 6.435 0 0 1 2.213-5.186 6.06 6.06 0 0 1 4.363-1.9l-.063 1.707a4.925 4.925 0 0 0-3.162 1.392 4.67 4.67 0 0 0-1.644 3.731 2.513 2.513 0 0 0 2.4 2.276l.19 1.708c-.06.129-.187.129-.313.129zm23.271 6.703a4.21 4.21 0 0 1-3.984-3.857 6.439 6.439 0 0 1 2.214-5.186 6.062 6.062 0 0 1 4.363-1.9 4.035 4.035 0 0 1 3.921 3.036l-1.708.316a2.315 2.315 0 0 0-2.276-1.644 4.6 4.6 0 0 0-3.1 1.391 4.667 4.667 0 0 0-1.644 3.731 2.512 2.512 0 0 0 2.4 2.276l.19 1.708a.537.537 0 0 1-.376.129zm10.245 2.72a4.211 4.211 0 0 1-3.984-3.858 6.432 6.432 0 0 1 2.213-5.185 6.325 6.325 0 0 1 4.364-1.9 4.035 4.035 0 0 1 3.92 3.036l-1.707.316a2.316 2.316 0 0 0-2.277-1.644 4.6 4.6 0 0 0-3.1 1.391 4.665 4.665 0 0 0-1.644 3.731 2.514 2.514 0 0 0 2.4 2.277l.189 1.707a.463.463 0 0 1-.374.129zm11.636 3.414a4.209 4.209 0 0 1-3.984-3.857 6.435 6.435 0 0 1 2.213-5.186 6.328 6.328 0 0 1 4.363-1.9 4.034 4.034 0 0 1 3.921 3.036l-1.707.316a2.316 2.316 0 0 0-2.277-1.644h-.063a4.562 4.562 0 0 0-3.035 1.391A4.668 4.668 0 0 0 178 80.669a2.515 2.515 0 0 0 2.4 2.277l.19 1.707a.626.626 0 0 1-.372.126z" fill="#ffffff"></path><path d="M137.911 77.254c-.126.38-.253.822-.695.822-2.909.063-2.656-15.683-.127-17.327 2.214-1.455 3.668 1.265 3.668 3.415-.19 4.49-1.771 8.98-2.846 13.09z" fill="#f7846c"></path><path d="M48.619 151.5c-.19-3.984-.379-8.031-.443-12.015a27.988 27.988 0 0 1 .316-6.071c.823-4.048 3.226-7.526 5.565-10.941a32.308 32.308 0 0 0-6.134 5.629c-.379-3.352-.885-7.083-1.581-12.9a185.979 185.979 0 0 0-.506 34.591" fill="#643cff"></path><path d="M17.885 155.29c-3.415 1.581-7.146 3.162-9.106 6.324a3.211 3.211 0 0 0-.569 2.466c.442 1.455 2.4 1.771 3.92 1.708a51.043 51.043 0 0 0 24.6-7.21c4.3-2.592 8.6-6.387 8.917-11.446a4.4 4.4 0 0 0-.38-2.4 4.233 4.233 0 0 0-4.553-1.834c-3.668.759-7.4 4.364-10.624 6.2-4.047 2.208-8.09 4.295-12.205 6.192z"></path><path d="m126.402 117.6 6.83 6.767-24.537 29.405-10.308-7.778 28.015-28.394z" fill="#d70a32"></path><path d="m106.229 151.938 2.4 1.834 24.536-29.4-1.075-1.075c-8.218 9.86-17.071 19.219-25.861 28.641z" fill="#ff465a"></path><path d="m133.232 124.367 4.679-11.952L126.4 117.6a6.1 6.1 0 0 0 2.4 4.427 12.171 12.171 0 0 0 4.432 2.34z" fill="#ffffff"></path><path d="M110.213 151.938s-6.134.886-9.865-7.9c0 0-6.893 6.071-6.514 8.031.569 3.478 4.743 7.905 8.79 8.158 2.467.122 7.589-8.289 7.589-8.289z" fill="#008c6e"></path><path d="M107.051 156.492c1.707-2.214 3.162-4.554 3.162-4.554s-6.134.886-9.865-7.9c0 0-1.9 1.707-3.668 3.6.632 5.186 5.249 7.779 10.371 8.854z" fill="#ffffff"></path><path d="M137.152 114.248a1.178 1.178 0 0 1-1.075-1.011s2.909-2.53 3.289-2.4c.379.186-2.214 3.411-2.214 3.411z"></path><path d="M116.663 148.9c-.189-.379-.442-.7-.569-.949-1.138-1.833-2.15-3.794-3.351-5.565 3.1.317 4.806 3.1 7.968 3.352 1.011.127 2.529-.443 2.15-1.391a1.273 1.273 0 0 0-.759-.633c-.822-.379-1.708-.822-2.53-1.2a13.116 13.116 0 0 0 3.162.379c.569 0 1.391-.253 1.328-.822 0-.316-.253-.506-.506-.7-3.415-2.846-6.26-8.158-9.675-11 1.96-1.138 5.628.127 7.4 2.34 1.391 1.771.569 5.122 1.9 6.956a1.609 1.609 0 0 0 1.518.7c.822-.063 1.011-.316 1.138-1.075a18.051 18.051 0 0 0-.506-8.411c-.759-2.529-2.277-5-4.68-6.071-2.213-.948-4.806-.506-7.146.064-6.64 1.644-29.342 8.979-20.552 19.224a7.5 7.5 0 0 0 6.008 3.1 17.263 17.263 0 0 0 9.8-2.656c.317-.19 2.34 1.833 2.53 2.023.759.7 1.518 1.581 2.213 2.34.506.506 2.593 2.34 3.415 1.455.25-.26-.066-1.078-.256-1.46z" fill="#f7846c"></path><path d="M94.72 133.663c-22.45 16.5-37.627 17.264-51.16 23.018a24.426 24.426 0 0 0 .506-9.549c-.253-1.2-1.265-2.972-2.783-2.466-6.45 2.34-10.5 8.537-16.884 11a136.2 136.2 0 0 0 2.087 14.292c.758 3.6 1.454 8.158 4.742 10.751 1.392 1.075 5-.253 7.589-.822 2.909-.7 6.387-1.075 9.17-2.087a102.5 102.5 0 0 0 16.378-7.842c12.458-7.335 22.07-19.287 34.908-25.927-2.719-2.843-4.996-6.511-4.553-10.368z" fill="#f7846c"></path><path d="M33.948 176.032a3.377 3.377 0 0 0-3.289-.316 11.147 11.147 0 0 0-2.34 1.075 9.818 9.818 0 0 0 2.909 3.921c.759.569 2.214.443 3.8.126.121-1.707.184-3.731-1.08-4.806z" fill="#dd4040"></path></g></svg>