<svg viewBox="0 0 400 400" xmlns="http://www.w3.org/2000/svg"><g transform="matrix(4,0,0,4,0,0)"><path d="M8.796 49.581 A40.000 40.000 0 1 0 88.796 49.581 A40.000 40.000 0 1 0 8.796 49.581 Z" fill="#c7f0ff" stroke="#ace5fa"></path><path d="M23.961 26.375L10.177 57.465" fill="none" stroke="#8ca4b8" stroke-linecap="round" stroke-linejoin="round"></path><path d="M36.606 77.991L10.177 57.465" fill="none" stroke="#8ca4b8" stroke-linecap="round" stroke-linejoin="round"></path><path d="M77.844 47.251L64.146 71.287" fill="none" stroke="#00aed9" stroke-linecap="round" stroke-linejoin="round"></path><path d="M23.961 26.375L59.812 18.742" fill="none" stroke="#8ca4b8" stroke-linecap="round" stroke-linejoin="round"></path><path d="M77.844 47.251L59.812 18.742" fill="none" stroke="#8ca4b8" stroke-linecap="round" stroke-linejoin="round"></path><path d="M77.844 47.251L48.509 53.811 10.177 57.465" fill="none" stroke="#00aed9" stroke-linecap="round" stroke-linejoin="round"></path><path d="M23.961 26.375L36.606 77.991" fill="none" stroke="#8ca4b8" stroke-linecap="round" stroke-linejoin="round"></path><path d="M59.812 18.742L48.509 53.811" fill="none" stroke="#8ca4b8" stroke-linecap="round" stroke-linejoin="round"></path><path d="M23.961 26.375L64.146 71.287" fill="none" stroke="#8ca4b8" stroke-linecap="round" stroke-linejoin="round"></path><path d="M64.146 71.287L36.606 77.991" fill="none" stroke="#8ca4b8" stroke-linecap="round" stroke-linejoin="round"></path><path d="M10.177 57.465L59.812 18.742" fill="none" stroke="#8ca4b8" stroke-linecap="round" stroke-linejoin="round"></path><path d="M0.293 55.613 A11.022 11.022 0 1 0 22.337 55.613 A11.022 11.022 0 1 0 0.293 55.613 Z" fill="#ffffff" stroke="#45413c" stroke-linecap="round" stroke-linejoin="round"></path><path d="M17.2,58.42a1.037,1.037,0,0,0-.841-1.009v-.673a5.048,5.048,0,1,0-10.095,0v.673a1.03,1.03,0,0,0,.106,2.039,5.048,5.048,0,0,0,9.883,0A1.04,1.04,0,0,0,17.2,58.42Z" fill="#ffcebf" stroke="#45413c" stroke-linecap="round" stroke-linejoin="round"></path><path d="M7.951 59.051 A0.631 0.631 0 1 0 9.213 59.051 A0.631 0.631 0 1 0 7.951 59.051 Z" fill="#ffb59e"></path><path d="M13.418 59.051 A0.631 0.631 0 1 0 14.680 59.051 A0.631 0.631 0 1 0 13.418 59.051 Z" fill="#ffb59e"></path><path d="M10.054,60.561a2.271,2.271,0,0,0,2.523,0" fill="none" stroke="#45413c" stroke-linecap="round" stroke-linejoin="round"></path><path d="M16.783,55.476a5.468,5.468,0,1,0-10.935,0v1.262a.42.42,0,0,0,.42.42H7.11a.42.42,0,0,0,.42-.42,3.739,3.739,0,0,1,1.139-2.684.839.839,0,0,1,.706-.232,2.384,2.384,0,0,1,1.4.689,3.172,3.172,0,0,0,3.9.517,3.835,3.835,0,0,1,.4,1.312.449.449,0,0,0,.444.4h.841a.421.421,0,0,0,.42-.421Z" fill="#ff6196" stroke="#45413c" stroke-linecap="round" stroke-linejoin="round"></path><path d="M11.315,51.69a6.3,6.3,0,0,1,5.423,3.085,5.468,5.468,0,0,0-10.845,0A6.3,6.3,0,0,1,11.315,51.69Z" fill="#ff87af"></path><path d="M16.783,55.476a5.468,5.468,0,1,0-10.935,0v1.262a.42.42,0,0,0,.42.42H7.11a.42.42,0,0,0,.42-.42,3.739,3.739,0,0,1,1.139-2.684.839.839,0,0,1,.706-.232,2.384,2.384,0,0,1,1.4.689,3.172,3.172,0,0,0,3.9.517,3.835,3.835,0,0,1,.4,1.312.449.449,0,0,0,.444.4h.841a.421.421,0,0,0,.42-.421Z" fill="none" stroke="#45413c" stroke-linecap="round" stroke-linejoin="round"></path><path d="M14.675,55.028a.263.263,0,0,0-.065-.48A2.862,2.862,0,0,1,13,53.373" fill="#ffdf3d" stroke="#45413c" stroke-linecap="round" stroke-linejoin="round"></path><path d="M9.423,56.738a.631.631,0,1,0,.631.63.63.63,0,0,0-.631-.63Z" fill="#45413c"></path><path d="M13.208,56.738a.631.631,0,1,0,.631.63.631.631,0,0,0-.631-.63Z" fill="#45413c"></path><path d="M11.315,50.008A5.452,5.452,0,0,1,15.174,51.6a2.212,2.212,0,0,0,.347-1.173c0-1.626-1.883-2.945-4.206-2.945s-4.2,1.319-4.2,2.945A2.212,2.212,0,0,0,7.457,51.6,5.451,5.451,0,0,1,11.315,50.008Z" fill="#ff6196" stroke="#45413c" stroke-linecap="round" stroke-linejoin="round"></path><path d="M48.239 18.539 A11.022 11.022 0 1 0 70.283 18.539 A11.022 11.022 0 1 0 48.239 18.539 Z" fill="#ffffff" stroke="#45413c" stroke-linecap="round" stroke-linejoin="round"></path><path d="M66.41,21.4a1.175,1.175,0,0,0-.954-1.143v-.763a5.719,5.719,0,0,0-11.438,0v.763a1.167,1.167,0,0,0,.12,2.311,5.72,5.72,0,0,0,11.2,0A1.18,1.18,0,0,0,66.41,21.4Z" fill="#d18660" stroke="#45413c" stroke-linecap="round" stroke-linejoin="round"></path><path d="M66.41,21.4a1.175,1.175,0,0,0-.954-1.143v-.763a5.719,5.719,0,0,0-11.438,0v.763a1.167,1.167,0,0,0,.12,2.311,5.72,5.72,0,0,0,11.2,0A1.18,1.18,0,0,0,66.41,21.4Z" fill="none" stroke="#45413c" stroke-linecap="round" stroke-linejoin="round"></path><path d="M57.593,19.492a.715.715,0,1,0,.715.715.715.715,0,0,0-.715-.715Z" fill="#45413c"></path><path d="M61.882,19.492a.715.715,0,1,0,.715.715.715.715,0,0,0-.715-.715Z" fill="#45413c"></path><path d="M55.925 22.113 A0.715 0.715 0 1 0 57.355 22.113 A0.715 0.715 0 1 0 55.925 22.113 Z" fill="#bd704a"></path><path d="M62.120 22.113 A0.715 0.715 0 1 0 63.550 22.113 A0.715 0.715 0 1 0 62.120 22.113 Z" fill="#bd704a"></path><path d="M58.308,23.825a2.577,2.577,0,0,0,2.859,0" fill="none" stroke="#45413c" stroke-linecap="round" stroke-linejoin="round"></path><path d="M53.542,15.2v4.289a.477.477,0,0,0,.476.477H54.5L56.4,15.2Z" fill="#614b44" stroke="#45413c" stroke-linecap="round" stroke-linejoin="round"></path><path d="M65.933,15.679a3.813,3.813,0,0,0-3.813-3.812H57.831a.952.952,0,0,1-.865-.554.685.685,0,0,0-.565-.4h-.81A2.957,2.957,0,0,0,52.6,13.5a2.86,2.86,0,0,0,2.534,3.114,2.616,2.616,0,0,0,2.219,1.924h.954a.173.173,0,0,0,.088-.321,1.939,1.939,0,0,1-.879-1.163.328.328,0,0,1,.314-.423h3.894a.951.951,0,0,1,.674.28l2.581,2.58h.476a.476.476,0,0,0,.477-.477Z" fill="#614b44"></path><path d="M62.12,11.867H57.831a.953.953,0,0,1-.865-.554.685.685,0,0,0-.565-.4h-.81A2.957,2.957,0,0,0,52.6,13.5a2.889,2.889,0,0,0,.089,1.027,25.717,25.717,0,0,1,5.618-.6,23.961,23.961,0,0,1,7.577,1.143A3.813,3.813,0,0,0,62.12,11.867Z" fill="#947063"></path><path d="M65.933,15.679a3.813,3.813,0,0,0-3.813-3.812H57.831a.952.952,0,0,1-.865-.554.685.685,0,0,0-.565-.4h-.81A2.957,2.957,0,0,0,52.6,13.5a2.86,2.86,0,0,0,2.534,3.114,2.616,2.616,0,0,0,2.219,1.924h.954a.173.173,0,0,0,.088-.321,1.939,1.939,0,0,1-.879-1.163.328.328,0,0,1,.314-.423h3.894a.951.951,0,0,1,.674.28l2.581,2.58h.476a.476.476,0,0,0,.477-.477Z" fill="none" stroke="#45413c" stroke-linecap="round" stroke-linejoin="round"></path><path d="M76.565 67.227H82.224V77.13000000000001H76.565z" fill="#f0f0f0" stroke="#45413c" stroke-linecap="round" stroke-linejoin="round" transform="translate(-27.784 77.28) rotate(-44.999)"></path><path d="M98.5,91.1l-.191.191a4.127,4.127,0,0,1-5.813,0L79.861,78.651a1.376,1.376,0,0,1,0-1.938l4.066-4.066a1.375,1.375,0,0,1,1.937,0L98.5,85.282A4.1,4.1,0,0,1,98.5,91.1Z" fill="#bf8256"></path><path d="M98.5,91.1l-.1.095-16.5-16.523,2.02-2.02a1.375,1.375,0,0,1,1.937,0L98.5,85.282A4.1,4.1,0,0,1,98.5,91.1Z" fill="#dea47a"></path><path d="M98.5,91.1l-.191.191a4.127,4.127,0,0,1-5.813,0L79.861,78.651a1.376,1.376,0,0,1,0-1.938l4.066-4.066a1.375,1.375,0,0,1,1.937,0L98.5,85.282A4.1,4.1,0,0,1,98.5,91.1Z" fill="none" stroke="#45413c" stroke-linecap="round" stroke-linejoin="round"></path><path d="M40.666 55.672 A21.222 21.222 0 1 0 83.110 55.672 A21.222 21.222 0 1 0 40.666 55.672 Z" fill="#f0f0f0" stroke="#45413c" stroke-linecap="round" stroke-linejoin="round" transform="translate(-19.959 40.489) rotate(-31.464)"></path><path d="M73.893,43.668a16.977,16.977,0,1,1-24.01,0A16.977,16.977,0,0,1,73.893,43.668Z" fill="#00b8f0"></path><path d="M49.883,67.677a16.977,16.977,0,1,1,24.01-24.009Z" fill="#4acfff"></path><path d="M61.479,63.81a11.32,11.32,0,0,0-9.664,5.531,16.992,16.992,0,0,0,19.558.416A11.293,11.293,0,0,0,61.479,63.81Z" fill="#f0f0f0"></path><path d="M61.479,63.81a11.32,11.32,0,0,0-9.664,5.531,16.934,16.934,0,0,0,1.738,1.126,11.221,11.221,0,0,1,16.133.291,17,17,0,0,0,1.687-1A11.293,11.293,0,0,0,61.479,63.81Z" fill="#ffffff"></path><path d="M61.479,63.81a11.32,11.32,0,0,0-9.664,5.531,16.992,16.992,0,0,0,19.558.416A11.293,11.293,0,0,0,61.479,63.81Z" fill="none" stroke="#45413c" stroke-linejoin="round"></path><path d="M64.833,64.355q-.27-.086-.545-.154a.98.98,0,0,1-.74-.952l0-3.378H59.571l0,3.34a.98.98,0,0,1-.749.952c-.23.056-.459.118-.685.189l-.023.03a3.377,3.377,0,0,0,6.738,0Z" fill="#ffcebf" stroke="#45413c" stroke-linecap="round" stroke-linejoin="round"></path><path d="M70.433,51.5a9,9,0,0,1-18,0c0-4.976,2.54-8.88,5.124-9.622a1.249,1.249,0,0,1,1.232.321C61.587,45.013,70.433,41.506,70.433,51.5Z" fill="#ffdf3d"></path><path d="M70.336,52.826c-1.007-8.316-9.746-4.658-11.9-8.075-2.561,0-5.354,3.4-5.9,8.106a9.046,9.046,0,0,1-.1-1.356c0-4.976,2.54-8.88,5.124-9.622a1.249,1.249,0,0,1,1.232.321c2.8,2.813,11.642-.694,11.642,9.3A9.053,9.053,0,0,1,70.336,52.826Z" fill="#ffef9e"></path><path d="M70.433,51.5a9,9,0,0,1-18,0c0-4.976,2.54-8.88,5.124-9.622a1.249,1.249,0,0,1,1.232.321C61.587,45.013,70.433,41.506,70.433,51.5Z" fill="none" stroke="#45413c" stroke-linecap="round" stroke-linejoin="round"></path><path d="M68.941,53.75l-1.511.75-1.09-3.814a1.489,1.489,0,0,0-1.751-1.056,13.63,13.63,0,0,1-6.317,0,1.49,1.49,0,0,0-1.751,1.056L55.431,54.5l-1.488-.75c-2.141,0-2,3.75.374,3.75h.007a7.45,7.45,0,0,0,14.236,0h0C70.937,57.5,71.081,53.75,68.941,53.75Z" fill="#ffcebf" stroke="#45413c" stroke-linecap="round" stroke-linejoin="round"></path><path d="M58.221 53.938 A0.886 0.886 0 1 0 59.993 53.938 A0.886 0.886 0 1 0 58.221 53.938 Z" fill="#45413c"></path><path d="M62.905 53.938 A0.886 0.886 0 1 0 64.677 53.938 A0.886 0.886 0 1 0 62.905 53.938 Z" fill="#45413c"></path><path d="M57.7,56a.75.75,0,1,1-.749-.75A.749.749,0,0,1,57.7,56Z" fill="#ffb59e"></path><path d="M66.7,56a.75.75,0,1,1-.75-.75A.75.75,0,0,1,66.7,56Z" fill="#ffb59e"></path><path d="M59.577,58.433a3.382,3.382,0,0,0,3.749,0" fill="none" stroke="#45413c" stroke-linecap="round" stroke-linejoin="round"></path><path d="M73.893,43.668a16.977,16.977,0,1,1-24.01,0A16.977,16.977,0,0,1,73.893,43.668Z" fill="none" stroke="#45413c" stroke-linecap="round" stroke-linejoin="round"></path><path d="M29.271 76.339 A7.012 7.012 0 1 0 43.295 76.339 A7.012 7.012 0 1 0 29.271 76.339 Z" fill="#ffffff" stroke="#45413c" stroke-linecap="round" stroke-linejoin="round"></path><path d="M34.027,76.176a2.256,2.256,0,0,0,4.512,0V75.048a2.256,2.256,0,0,0-4.512,0Z" fill="#ffcebf" stroke="#45413c" stroke-linecap="round" stroke-linejoin="round"></path><path d="M40.971,81.553a7.011,7.011,0,0,1-9.372,0,5.075,5.075,0,0,1,9.366-.008" fill="#ff6242" stroke="#45413c" stroke-linecap="round" stroke-linejoin="round"></path><path d="M34.046,74.757a2.256,2.256,0,0,1,4.111-.965A4.11,4.11,0,0,1,34.046,74.757Z" fill="#a86c4d" stroke="#45413c" stroke-linecap="round" stroke-linejoin="round"></path><path d="M17.225 25.754 A7.012 7.012 0 1 0 31.249 25.754 A7.012 7.012 0 1 0 17.225 25.754 Z" fill="#ffffff" stroke="#45413c" stroke-linecap="round" stroke-linejoin="round"></path><path d="M21.98,25.591a2.257,2.257,0,0,0,4.513,0V24.463a2.257,2.257,0,0,0-4.513,0Z" fill="#ffcebf" stroke="#45413c" stroke-linecap="round" stroke-linejoin="round"></path><path d="M28.924,30.969a7.014,7.014,0,0,1-9.372,0,5.075,5.075,0,0,1,9.366-.008" fill="#6dd627" stroke="#45413c" stroke-linecap="round" stroke-linejoin="round"></path><path d="M22,24.172a2.255,2.255,0,0,1,4.111-.964A4.111,4.111,0,0,1,22,24.172Z" fill="#a86c4d" stroke="#45413c" stroke-linecap="round" stroke-linejoin="round"></path></g></svg>